<svg version="1.1" id="Layer_1" xmlns="http://www.w3.org/2000/svg" xmlns:xlink="http://www.w3.org/1999/xlink" x="0px" y="0px" viewBox="7.770000457763672 1.1399999856948853 54.480003356933594 52.71999740600586" style="enable-background:new 0 0 70 55;" xml:space="preserve">
<style type="text/css">
	.st0{fill:#D31E47;}
</style>
<path class="st0" d="M60.78,45.27c-0.39-0.15-0.76-0.3-1.12-0.44c-2.92-1.21-4.64-4.27-4.15-7.39c0,0,0,0,0,0
	c1.2-0.98,2.02-2.43,2.15-4.07l0.25-3.2c0.13-1.66-0.47-3.24-1.54-4.41c-0.12-6.21-1.32-12.58-4.83-17.3
	C48.1,3.8,42.86,1.38,35.99,1.17V1.14h-1.94v0.04C27.18,1.38,21.94,3.8,18.5,8.45c-3.53,4.75-4.73,11.17-4.83,17.41
	c-1,1.16-1.56,2.69-1.44,4.3l0.26,3.2c0.13,1.58,0.9,2.97,2.04,3.95c0.49,3.21-1.27,6.32-4.26,7.55C9.92,45,9.58,45.13,9.22,45.27
	l-1.45,0.55l1.08,1.11c0.05,0.05,3.64,3.66,9.37,3.66c1.72,0,3.62-0.33,5.69-1.17c3.15,2.88,6.94,4.44,11.17,4.44
	c4.21,0,7.99-1.54,11.13-4.4c2.02,0.81,3.9,1.13,5.59,1.13c5.72,0,9.32-3.61,9.37-3.66l1.08-1.11L60.78,45.27z M18.38,26.83
	c7.86-1.04,8.25-13.5,8.25-13.5c0,10.48,22.18,13.15,25.13,13.46l0,0.04l1.05,0.3c1.21,0.35,2.02,1.52,1.92,2.77l-0.25,3.2
	c-0.11,1.37-1.28,2.45-2.69,2.45l-1.18-0.01l-0.36,1.12c-0.28,0.87-0.64,1.85-1.07,2.86c-1.48,1.47-4.32,3.28-9.59,3.99
	c-0.79-1.25-2.56-2.12-4.62-2.12c-2.79,0-5.05,1.6-5.05,3.57c0,1.97,2.26,3.57,5.05,3.57c2.15,0,3.97-0.95,4.7-2.28
	c2.75-0.35,4.96-0.99,6.73-1.75c-2.46,3.38-6.09,6.18-11.34,6.18c-9.31,0-13.5-8.77-15.18-14l-0.39-1.11h-1.17
	c-1.38,0-2.56-1.07-2.67-2.44l-0.26-3.2c-0.1-1.26,0.71-2.43,1.92-2.77L18.38,26.83L18.38,26.83z M28.03,27.66
	c-1.69,0-3.06,1.37-3.06,3.05c0,1.69,1.37,3.06,3.06,3.06c1.69,0,3.05-1.37,3.05-3.06C31.08,29.03,29.72,27.66,28.03,27.66z
	 M41.62,27.66c-1.68,0-3.05,1.37-3.05,3.05c0,1.69,1.37,3.06,3.05,3.06c1.69,0,3.06-1.37,3.06-3.06
	C44.68,29.03,43.31,27.66,41.62,27.66z"></path>
</svg>