<?xml version="1.0" encoding="utf-8"?>
<!-- Generator: Adobe Illustrator 23.0.4, SVG Export Plug-In . SVG Version: 6.00 Build 0)  -->
<svg version="1.1" id="Layer_1" xmlns="http://www.w3.org/2000/svg" xmlns:xlink="http://www.w3.org/1999/xlink" x="0px" y="0px"
	 viewBox="0 0 70 55" style="enable-background:new 0 0 70 55;" xml:space="preserve">
<style type="text/css">
	.st0{fill:#D31E47;}
</style>
<g>
	<path class="st0" d="M42.36,35.79V6.66c0-2.63-2.16-4.79-4.79-4.79H9.74c-2.63,0-4.79,2.15-4.79,4.79v30.26
		c0,2.63,2.15,4.79,4.79,4.79h1.49c1.23-4.75,5.55-8.27,10.68-8.27c5.13,0,9.44,3.52,10.67,8.27h4.99c0.31,0,0.62-0.03,0.92-0.09
		C39.12,39.28,40.5,37.24,42.36,35.79z M64.53,27.48L61.6,14.31c-0.29-1.29-1.59-2.34-2.91-2.34H46.04c-1.32,0-2.4,1.07-2.4,2.39
		v20.56c1.63-0.94,3.5-1.48,5.51-1.48c5.13,0,9.44,3.52,10.67,8.27h1.95c1.81,0,3.27-1.46,3.27-3.27v-6.23
		C65.05,30.89,64.81,28.77,64.53,27.48z M57.57,25.85h-7.57c-1.32,0-2.4-1.07-2.4-2.39v-5.13c0-1.32,1.07-2.39,2.4-2.39h5.58
		c1.32,0,2.61,1.05,2.87,2.35l1.04,5.22C59.76,24.8,58.89,25.85,57.57,25.85z M21.92,35.83c-4.78,0-8.65,3.87-8.65,8.65
		c0,4.78,3.87,8.65,8.65,8.65c4.77,0,8.64-3.87,8.64-8.65C30.56,39.71,26.68,35.83,21.92,35.83z M21.91,47.46
		c-1.64,0-2.98-1.33-2.98-2.98c0-1.64,1.33-2.97,2.98-2.97c1.64,0,2.97,1.33,2.97,2.97C24.89,46.12,23.55,47.46,21.91,47.46z
		 M49.15,35.83c-4.78,0-8.65,3.87-8.65,8.65c0,4.78,3.87,8.65,8.65,8.65c4.77,0,8.64-3.87,8.64-8.65
		C57.79,39.71,53.92,35.83,49.15,35.83z M49.15,47.46c-1.64,0-2.98-1.33-2.98-2.98c0-1.64,1.33-2.97,2.98-2.97
		c1.64,0,2.97,1.33,2.97,2.97C52.12,46.12,50.79,47.46,49.15,47.46z"/>
</g>
</svg>
