<?xml version="1.0" encoding="utf-8"?>
<!-- Generator: Adobe Illustrator 23.0.4, SVG Export Plug-In . SVG Version: 6.00 Build 0)  -->
<svg version="1.1" id="Layer_1" xmlns="http://www.w3.org/2000/svg" xmlns:xlink="http://www.w3.org/1999/xlink" x="0px" y="0px"
	 viewBox="0 0 70 55" style="enable-background:new 0 0 70 55;" xml:space="preserve">
<style type="text/css">
	.st0{fill:#D31E47;}
</style>
<g>
	<g>
		<path class="st0" d="M42.62,9.66l-2.85,2.06c-0.42,0.31-0.6,0.85-0.44,1.34l1.15,3.33c0.05,0.15,0.07,0.29,0.06,0.43
			c-0.04,0.89-1.16,1.5-1.98,0.91l-2.85-2.06c-0.21-0.15-0.46-0.23-0.71-0.23s-0.5,0.08-0.71,0.23l-2.85,2.06
			c-0.82,0.59-1.95-0.02-1.98-0.91c-0.01-0.14,0.01-0.28,0.06-0.43l1.15-3.33c0.16-0.49-0.02-1.04-0.44-1.34l-2.85-2.06
			c-0.95-0.68-0.46-2.31,0.71-2.31h3.52c0.52,0,0.99-0.2,1.15-0.7l1.09-3.35c0.18-0.55,0.67-0.83,1.15-0.83
			c0.48,0,0.97,0.28,1.15,0.83l1.09,3.35c0.16,0.49,0.63,0.7,1.15,0.7h3.52C43.08,7.35,43.57,8.97,42.62,9.66z"/>
	</g>
	<g>
		<g>
			<path class="st0" d="M60.07,19.04l-2.85,2.06c-0.42,0.31-0.6,0.85-0.44,1.34l1.15,3.33c0.05,0.15,0.07,0.29,0.06,0.43
				c-0.04,0.89-1.16,1.5-1.98,0.91l-2.85-2.06c-0.21-0.15-0.46-0.23-0.71-0.23s-0.5,0.08-0.71,0.23l-2.85,2.06
				c-0.82,0.59-1.95-0.02-1.98-0.91c-0.01-0.14,0.01-0.28,0.06-0.43l1.15-3.33c0.16-0.49-0.02-1.04-0.44-1.34l-2.85-2.06
				c-0.95-0.68-0.46-2.31,0.71-2.31h3.52c0.52,0,0.99-0.2,1.15-0.7l1.09-3.35c0.18-0.55,0.67-0.83,1.15-0.83
				c0.48,0,0.97,0.28,1.15,0.83l1.09,3.35c0.16,0.49,0.63,0.7,1.15,0.7h3.52C60.53,16.73,61.01,18.35,60.07,19.04z"/>
		</g>
		<g>
			<path class="st0" d="M25.18,19.04l-2.85,2.06c-0.42,0.31-0.6,0.85-0.44,1.34l1.15,3.33c0.05,0.15,0.07,0.29,0.06,0.43
				c-0.04,0.89-1.16,1.5-1.98,0.91l-2.85-2.06c-0.21-0.15-0.46-0.23-0.71-0.23s-0.5,0.08-0.71,0.23L14,27.11
				c-0.82,0.59-1.95-0.02-1.98-0.91c-0.01-0.14,0.01-0.28,0.06-0.43l1.15-3.33c0.16-0.49-0.02-1.04-0.44-1.34l-2.85-2.06
				c-0.95-0.68-0.46-2.31,0.71-2.31h3.52c0.52,0,0.99-0.2,1.15-0.7l1.09-3.35c0.18-0.55,0.67-0.83,1.15-0.83
				c0.48,0,0.97,0.28,1.15,0.83l1.09,3.35c0.16,0.49,0.63,0.7,1.15,0.7h3.52C25.64,16.73,26.13,18.35,25.18,19.04z"/>
		</g>
	</g>
	<g>
		<g>
			<path class="st0" d="M18.07,36.16l-2.85,2.06c-0.42,0.31-0.6,0.85-0.44,1.34l1.15,3.33c0.05,0.15,0.07,0.29,0.06,0.43
				c-0.04,0.89-1.16,1.5-1.98,0.91l-2.85-2.06c-0.21-0.15-0.46-0.23-0.71-0.23s-0.5,0.08-0.71,0.23l-2.85,2.06
				c-0.82,0.59-1.95-0.02-1.98-0.91c-0.01-0.14,0.01-0.28,0.06-0.43l1.15-3.33c0.16-0.49-0.02-1.04-0.44-1.34l-2.85-2.06
				c-0.95-0.68-0.46-2.31,0.71-2.31h3.52c0.52,0,0.99-0.2,1.15-0.7l1.09-3.35c0.18-0.55,0.67-0.83,1.15-0.83s0.97,0.28,1.15,0.83
				l1.09,3.35c0.16,0.49,0.63,0.7,1.15,0.7h3.52C18.53,33.86,19.02,35.48,18.07,36.16z"/>
		</g>
		<g>
			<path class="st0" d="M67.18,36.61l-2.85,2.06c-0.42,0.31-0.6,0.85-0.44,1.34l1.15,3.33c0.05,0.15,0.07,0.29,0.06,0.43
				c-0.04,0.89-1.16,1.5-1.98,0.91l-2.85-2.06c-0.21-0.15-0.46-0.23-0.71-0.23c-0.25,0-0.5,0.08-0.71,0.23L56,44.68
				c-0.82,0.59-1.95-0.02-1.98-0.91c-0.01-0.14,0.01-0.28,0.06-0.43l1.15-3.33c0.16-0.49-0.02-1.04-0.44-1.34l-2.85-2.06
				c-0.95-0.68-0.46-2.31,0.71-2.31h3.52c0.52,0,0.99-0.2,1.15-0.7l1.09-3.35c0.18-0.55,0.67-0.83,1.15-0.83
				c0.48,0,0.97,0.28,1.15,0.83l1.09,3.35c0.16,0.49,0.63,0.7,1.15,0.7h3.52C67.64,34.3,68.13,35.93,67.18,36.61z"/>
		</g>
	</g>
	<g>
		<path class="st0" d="M18.55,51.65c0.33,0.22,0.7,0.32,1.06,0.32c0.62,0,1.22-0.3,1.59-0.85c3.09-4.62,8.25-7.37,13.81-7.37
			c5.54,0,10.7,2.74,13.79,7.34c0.59,0.88,1.78,1.11,2.65,0.52c0.88-0.59,1.11-1.78,0.52-2.65c-2.47-3.67-6.01-6.38-10.06-7.83
			c2.43-1.98,3.98-5,3.98-8.37c0-5.96-4.85-10.8-10.8-10.8s-10.8,4.85-10.8,10.8c0,3.35,1.53,6.34,3.93,8.32
			c-4.11,1.44-7.7,4.19-10.2,7.91C17.43,49.88,17.67,51.07,18.55,51.65z M35.1,25.79c3.85,0,6.98,3.13,6.98,6.98
			s-3.13,6.98-6.98,6.98s-6.98-3.13-6.98-6.98S31.25,25.79,35.1,25.79z"/>
		<path class="st0" d="M19.61,52.52c-0.49,0-0.96-0.14-1.36-0.42l0,0c-0.55-0.36-0.92-0.92-1.04-1.56c-0.13-0.64,0-1.3,0.37-1.84
			c2.37-3.55,5.69-6.23,9.62-7.8c-2.2-2.13-3.44-5.05-3.44-8.13c0-6.26,5.09-11.35,11.35-11.35s11.35,5.09,11.35,11.35
			c0,3.11-1.26,6.04-3.49,8.18c3.87,1.57,7.13,4.23,9.48,7.71c0.37,0.54,0.5,1.2,0.37,1.84c-0.13,0.64-0.5,1.2-1.04,1.57
			c-0.55,0.37-1.2,0.5-1.84,0.37c-0.64-0.13-1.2-0.5-1.57-1.04c-2.99-4.44-7.98-7.1-13.34-7.1c-5.38,0-10.37,2.67-13.36,7.13
			C21.2,52.12,20.43,52.52,19.61,52.52z M35.1,22.51c-5.65,0-10.26,4.6-10.26,10.26c0,3.06,1.36,5.94,3.73,7.9l0.74,0.62L28.4,41.6
			c-4.08,1.43-7.51,4.1-9.93,7.7c-0.2,0.3-0.28,0.67-0.2,1.03c0.07,0.36,0.28,0.67,0.58,0.87l0,0c0.61,0.41,1.49,0.23,1.89-0.38
			c3.19-4.77,8.52-7.61,14.27-7.61c5.73,0,11.05,2.83,14.24,7.58c0.2,0.3,0.51,0.51,0.87,0.58c0.36,0.07,0.72,0,1.02-0.21
			c0.3-0.2,0.51-0.51,0.58-0.87c0.07-0.36,0-0.72-0.21-1.02c-2.39-3.55-5.77-6.18-9.79-7.62l-0.91-0.33l0.75-0.61
			c2.4-1.96,3.78-4.86,3.78-7.94C45.35,27.11,40.75,22.51,35.1,22.51z M35.1,40.29c-4.15,0-7.52-3.38-7.52-7.52s3.38-7.52,7.52-7.52
			c4.15,0,7.52,3.38,7.52,7.52S39.24,40.29,35.1,40.29z M35.1,26.33c-3.55,0-6.43,2.89-6.43,6.43s2.89,6.43,6.43,6.43
			s6.43-2.89,6.43-6.43S38.64,26.33,35.1,26.33z"/>
	</g>
</g>
</svg>
