<svg version="1.1" id="Layer_1" xmlns="http://www.w3.org/2000/svg" xmlns:xlink="http://www.w3.org/1999/xlink" x="0px" y="0px" viewBox="2.403158187866211 2.940000057220459 65.1980972290039 49.130001068115234" style="enable-background:new 0 0 70 55;" xml:space="preserve">
<style type="text/css">
	.st0{fill:#D31E47;}
</style>
<path class="st0" d="M66.61,26.35L44.19,3.93c-0.64-0.64-1.5-0.99-2.39-0.99H30.08c-0.9,0-1.76,0.36-2.39,0.99l-6.49,6.49
	c-2.6,0.48-5.32,1.45-7.92,2.87c-3.82,2.08-6.98,4.88-8.91,7.89c-2.14,3.34-2.55,6.6-1.15,9.17c1.39,2.55,4.12,4.23,7.5,4.61
	c0.52,0.06,1.05,0.09,1.58,0.09c2.19,0,4.51-0.49,6.86-1.44l-2.91-2.92c-1.81,0.55-3.56,0.76-5.11,0.58
	c-2.19-0.25-3.85-1.21-4.66-2.7c-0.71-1.31-0.34-3.27,1.02-5.39c1.59-2.49,4.28-4.84,7.56-6.63c3.27-1.78,6.69-2.76,9.63-2.76h0.04
	c2.52,0.01,4.37,0.76,5.08,2.07c0.49,0.9,1.62,1.23,2.52,0.74c0.9-0.49,1.23-1.62,0.74-2.52c-0.44-0.81-1.05-1.49-1.78-2.06
	c1.3-0.18,2.67,0.22,3.68,1.23c1.71,1.71,1.71,4.47,0,6.18c-1.71,1.71-4.47,1.71-6.18,0c-0.85-0.85-1.28-1.97-1.28-3.08
	c-2.13-0.7-5.39-0.54-9.02,0.78v9.14c0,0.9,0.36,1.76,0.99,2.39l22.42,22.42c1.32,1.32,3.47,1.32,4.79,0l19.93-19.94
	C67.93,29.81,67.93,27.67,66.61,26.35z M39.66,22.17c1.24-1.24,2.68-2.2,4.32-2.86l1.59,3.54c-1.2,0.55-2.11,1.13-2.72,1.75
	c-0.34,0.34-0.5,0.69-0.47,1.05c0.03,0.36,0.26,0.75,0.68,1.17l0.94,0.94l3.05-3.05l2.46,2.46l-3.05,3.05l0.85,0.85
	c0.89,0.89,1.09,2.03,0.6,3.42l5.95-5.95l2.89,2.89l-9.41,9.41l-2.78-2.78c0.2-0.76,0.3-1.31,0.29-1.65
	c-0.01-0.34-0.08-0.66-0.23-0.97c-0.15-0.3-0.39-0.62-0.72-0.95l-0.87-0.87l-1.47,1.47l-2.46-2.46l1.47-1.47l-1.05-1.05
	c-1.27-1.27-1.89-2.59-1.87-3.94C37.68,24.81,38.35,23.48,39.66,22.17z"></path>
</svg>