<svg version="1.1" id="Layer_1" xmlns="http://www.w3.org/2000/svg" xmlns:xlink="http://www.w3.org/1999/xlink" x="0px" y="0px" viewBox="15.28455638885498 2.8299999237060547 40.430885314941406 49.339996337890625" style="enable-background:new 0 0 70 55;" xml:space="preserve">
<style type="text/css">
	.st0{fill-rule:evenodd;clip-rule:evenodd;fill:#D31E47;}
</style>
<path class="st0" d="M35.5,52.17c-10.58,0-19.17-8.58-19.17-19.17c0-10.58,8.58-19.17,19.17-19.17c10.58,0,19.17,8.58,19.17,19.17
	C54.67,43.59,46.08,52.17,35.5,52.17L35.5,52.17z M35.5,47.37c-7.94,0-14.37-6.44-14.37-14.37c0-7.94,6.44-14.37,14.37-14.37
	c7.94,0,14.37,6.44,14.37,14.37C49.87,40.94,43.44,47.37,35.5,47.37L35.5,47.37z M30.77,2.83c-0.62,0-1.12,0.51-1.12,1.12v4.77
	c0,0.62,0.51,1.12,1.12,1.12h1.13v2.77c1.17-0.2,2.37-0.31,3.6-0.31c1.42,0,2.8,0.14,4.14,0.41V9.85h1.13
	c0.62,0,1.12-0.51,1.12-1.12V3.95c0-0.62-0.51-1.12-1.12-1.12H30.77L30.77,2.83z M55.41,16.08l-2.99-3.14
	c-0.39-0.41-1-0.46-1.36-0.11l-3.52,3.34c1.74,1.25,3.27,2.75,4.55,4.47l3.36-3.19C55.82,17.1,55.8,16.49,55.41,16.08L55.41,16.08z
	 M15.59,16.08c-0.39,0.41-0.41,1.02-0.04,1.37l3.36,3.19c1.28-1.71,2.81-3.22,4.55-4.47l-3.52-3.34c-0.36-0.34-0.98-0.29-1.36,0.11
	L15.59,16.08L15.59,16.08z M35.5,33l9.31,7.27c1.62-2.08,2.5-4.64,2.5-7.27c0-6.52-5.29-11.81-11.81-11.81V33L35.5,33z"></path>
</svg>