<svg xmlns="http://www.w3.org/2000/svg" xmlns:xlink="http://www.w3.org/1999/xlink" version="1.1" width="1591" height="300" style="" xml:space="preserve"><rect id="backgroundrect" width="100%" height="100%" x="0" y="0" fill="none" stroke="none" class="" style=""/>
<g class="currentLayer" style=""><title>Layer 1</title><g id="svg_1" class="" fill-opacity="1" fill="#f47e27">
	<g id="star-rate" fill="#f47e27">
		<polygon points="153,230.775 247.35,299.625 211.65,187.425 306,121.125 191.25,121.125 153,6.375 114.75,121.125 0,121.125     94.35,187.425 58.65,299.625   " id="svg_2" fill="#f47e27"/>
	</g>
</g><g class="" fill-opacity="1" fill="#f47e27" id="svg_18">
	<g id="svg_20" fill="#f47e27">
		<polygon points="476.07366943359375,230.77499389648438 570.4237670898438,299.625 534.7237548828125,187.4250030517578 629.0737915039062,121.125 514.3236694335938,121.125 476.07366943359375,6.375001907348633 437.82366943359375,121.125 323.07366943359375,121.125 417.4236755371094,187.4250030517578 381.7236633300781,299.625 " id="svg_2" fill="#f47e27" transform=""/>
	</g>
</g><g class="" fill-opacity="1" fill="#f47e27" id="svg_22">
	<g id="svg_24" fill="#f47e27">
		<polygon points="798.6842041015625,230.77499389648438 893.0341796875,299.625 857.3341674804688,187.4250030517578 951.6842041015625,121.125 836.9342041015625,121.125 798.6842041015625,6.375003814697266 760.4342041015625,121.125 645.6842041015625,121.125 740.0341796875,187.4250030517578 704.3341674804688,299.625 " id="svg_2" fill="#f47e27"/>
	</g>
</g><g class="" fill-opacity="1" fill="#f47e27" id="svg_26">
	<g id="svg_28" fill="#f47e27">
		<polygon points="1118.5510659217834,230.77499389648438 1212.901041507721,299.625 1177.2009682655334,187.4250030517578 1271.5510659217834,121.125 1156.8010659217834,121.125 1118.5510659217834,6.375003337860107 1080.3010659217834,121.125 965.5508828163147,121.125 1059.901041507721,187.4250030517578 1024.200846195221,299.625 " id="svg_2" fill="#f47e27"/>
	</g>
</g><g class="" fill-opacity="1" fill="#f47e27" id="svg_34">
	<g id="svg_36" fill="#f47e27">
		<polygon points="1437.8843178749084,230.77499389648438 1532.234293460846,299.625 1496.5342202186584,187.4250030517578 1590.8843178749084,121.125 1476.1343178749084,121.125 1437.8843178749084,6.375003814697266 1399.6343178749084,121.125 1284.884195804596,121.125 1379.234293460846,187.4250030517578 1343.534098148346,299.625 " id="svg_2" fill="#f47e27"/>
	</g>
</g></g></svg>