<svg version="1.1" id="Layer_1" xmlns="http://www.w3.org/2000/svg" xmlns:xlink="http://www.w3.org/1999/xlink" x="0px" y="0px" viewBox="10.270000457763672 2.374728202819824 49.45000076293945 50.25527572631836" style="enable-background:new 0 0 70 55;" xml:space="preserve">
<style type="text/css">
	.st0{fill:#D31E47;}
</style>
<path class="st0" d="M56.52,37.22H13.37c-1.69,0-3.08,1.39-3.08,3.08v9.25c0,1.7,1.39,3.08,3.08,3.08h43.14
	c1.7,0,3.08-1.39,3.08-3.08V40.3C59.6,38.6,58.21,37.22,56.52,37.22z M15.72,44.8c-1.21,0-2.18-0.98-2.18-2.18
	c0-1.21,0.98-2.18,2.18-2.18c1.21,0,2.18,0.98,2.18,2.18C17.9,43.83,16.92,44.8,15.72,44.8z M53.43,23.47L22.35,34.14h-2.39
	l29.21-16.86c1.47-0.85,3.36-0.34,4.21,1.13l2.9,5.02C55.36,23.23,54.39,23.21,53.43,23.47z M59.72,35.06
	c-0.94-0.58-2.03-0.93-3.21-0.93h-31l28.7-7.69c1.64-0.44,3.33,0.54,3.77,2.18L59.72,35.06z M47.63,14.61L18.77,34.14h-0.93
	L41.68,10.3c1.2-1.2,3.15-1.2,4.35,0l3.6,3.6C48.95,14.02,48.27,14.24,47.63,14.61z M18.56,3.85L12.71,34.2
	c-0.88,0.1-1.71,0.37-2.44,0.8V6.37c0-1.7,1.38-3.08,3.07-3.08l5.43,0C18.71,3.48,18.62,3.65,18.56,3.85z M29.58,4.45L15.16,34.14
	h-1.52l7.9-29.48c0.44-1.64,2.13-2.62,3.77-2.18l4.78,1.28C29.91,3.98,29.73,4.2,29.58,4.45z M39.5,8.12L16.95,34.14h-0.94
	L32.26,5.99c0.84-1.47,2.74-1.97,4.2-1.12l4.15,2.39C40.21,7.5,39.84,7.78,39.5,8.12z"></path>
</svg>